<svg width="256" height="256" xmlns="http://www.w3.org/2000/svg" xmlns:xlink="http://www.w3.org/1999/xlink" overflow="hidden"><defs><clipPath id="clip0"><rect x="811" y="286" width="256" height="256"/></clipPath></defs><g clip-path="url(#clip0)" transform="translate(-811 -286)"><path d="M839.369 442.03 867.738 413.661 839.369 385.292 811 413.661Z" fill="#FFFFFF" fill-rule="evenodd"/><path d="M1037.95 442.03 1066.32 413.661 1037.95 385.292 1009.58 413.661Z" fill="#FFFFFF" fill-rule="evenodd"/><path d="M938.661 442.03 967.03 413.661 938.661 385.292 910.292 413.661Z" fill="#FFFFFF" fill-rule="evenodd"/><path d="M952.846 300.184 938.661 286 860.646 364.015 889.015 392.384 938.661 342.738 988.307 392.384 1016.68 364.015 952.846 300.184Z" fill="#FFFFFF" fill-rule="evenodd"/><path d="M924.476 527.138 938.661 541.322 1016.68 463.307 988.307 434.938 938.661 484.584 889.015 434.938 860.646 463.307 924.476 527.138Z" fill="#FFFFFF" fill-rule="evenodd"/></g></svg>